<svg xmlns="http://www.w3.org/2000/svg" viewBox="0 0 1024 1024" version="1.1"><path d="M592.6 581.6a256.4 256.4 0 0 0-63.1 93.1A524.2 524.2 0 0 0 512 674.4c-166.3 0-341.6 81.8-341.6 117.6v61.6H526.7c14.7 41.3 39.7 77.9 72 106.4H64v-164.5C64 649.5 362.5 576 512 576c23.7 0 51.2 1.9 80.6 5.6zM512 64c123.8 0 224 100.2 224 224S635.8 512 512 512a223.9 223.9 0 0 1-224-224C288 164.2 388.2 64 512 64z m0 106.4a117.6 117.6 0 1 0 0 235.1 117.6 117.6 0 0 0 0-235.1zM832 576v128h128v128h-128v128h-128v-128H576v-128h128V576h128z" fill="#262626" p-id="2215"></path></svg>