<svg xmlns="http://www.w3.org/2000/svg" viewBox="0 0 1024 1024" version="1.1"><path d="M983.2 336.2a500.2 500.2 0 0 0-267.2-263.6A503.7 503.7 0 0 0 520.7 33.7c-55.6 0-109.8 8.7-161.5 26.1C238.5 4.3 99.1 0 59.1 0 56.2 0 49.3 0 46.7 0.3a47.5 47.5 0 0 0-43.2 65.2l85.1 211.1A489.2 489.2 0 0 0 18.8 528.8c0 67.2 13.2 131.9 39.5 192.8a488.3 488.3 0 0 0 107.5 157.4 500.2 500.2 0 0 0 159.7 106 503.6 503.6 0 0 0 195.2 38.9 507.5 507.5 0 0 0 195.7-38.9 499 499 0 0 0 267.1-263.6 488.3 488.3 0 0 0-0.1-385.3z m-87.9 348.1a400.8 400.8 0 0 1-87.3 128 399.9 399.9 0 0 1-129.4 86.1H678.4a412 412 0 0 1-158.8 31.6 410.2 410.2 0 0 1-158.6-31.6 406.4 406.4 0 0 1-216.7-214v-0.1a394.9 394.9 0 0 1-31.9-156.6c0-72.3 19.6-143.3 56.7-205.1l17.5-28.9-12.5-31.2-68-168.5c19.7 0.8 47.6 2.8 79.1 7.4 58 8.4 109.2 22.8 152.2 42.6l25.2 11.6 26.4-9a408.3 408.3 0 0 1 131-21.1 409.7 409.7 0 0 1 288.1 117.8 397.2 397.2 0 0 1 87.2 127.7l0.1 0.1 0.1 0.1a396.8 396.8 0 0 1-0.1 313zM735.4 319a49 49 0 0 0-49.2 48.4v71.9c0 26.7 22 48.4 49.2 48.4 27.1 0 49.2-21.8 49.2-48.4V367.4a48.9 48.9 0 0 0-49.2-48.4z m-232.1 0a48.9 48.9 0 0 0-49.2 48.4v71.9c0 26.7 22.1 48.4 49.2 48.4 27.2 0 49.2-21.8 49.2-48.4V367.4a48.9 48.9 0 0 0-49.2-48.4z" fill="#0" p-id="884"></path></svg>