<svg xmlns="http://www.w3.org/2000/svg" viewBox="0 0 1024 1024" version="1.1"><path d="M284.8 360.3l178-104.8a7.7 7.7 0 0 0 0-13.2l-179.2-104.9a7.5 7.5 0 0 0-7.5 0L98.2 242.2a7.7 7.7 0 0 0 0 13.2l179.1 104.8a7.5 7.5 0 0 0 7.5 0z m464.4 0l178-104.8a7.7 7.7 0 0 0 0-13.2l-179.1-104.9a7.5 7.5 0 0 0-7.6 0L562.5 242.2a7.7 7.7 0 0 0 0 13.2l179.1 104.8a7.5 7.5 0 0 0 7.6 0z m-23 39.4l-0.6 208.5a7.7 7.7 0 0 1-3.7 6.6 7.5 7.5 0 0 1-7.5 0L535.2 509.9a7.7 7.7 0 0 1-3.8-6.6l0.6-208.5c0-5.9 6.3-9.6 11.3-6.7l179.2 104.9a7.7 7.7 0 0 1 3.8 6.6z m-429.5 0l0.6 208.5c0 5.9 6.3 9.5 11.3 6.6L487.8 509.9a7.7 7.7 0 0 0 3.8-6.6l-0.6-208.5a7.7 7.7 0 0 0-3.8-6.7 7.5 7.5 0 0 0-7.5 0l-179.2 104.9a7.7 7.7 0 0 0-3.8 6.6z m422.7 295.3l2.5 0.9a7.7 7.7 0 0 1 3.8 6.6l0.6 208.5a7.7 7.7 0 0 1-3.8 6.7l-179.1 104.8a7.5 7.5 0 0 1-11.4-6.6l-0.6-208.5a7.7 7.7 0 0 1 3.8-6.7l179.1-104.8a7.5 7.5 0 0 1 7.6 0z m-410.9 0.9l179.2 104.9a7.7 7.7 0 0 1 3.8 6.6l-0.6 208.5a7.7 7.7 0 0 1-3.8 6.6 7.5 7.5 0 0 1-7.5 0L300.4 917.6a7.7 7.7 0 0 1-3.8-6.6l0.6-208.5c0-5.9 6.3-9.6 11.3-6.7z m643.8-137.2l2.5 0.9a7.7 7.7 0 0 1 3.8 6.7L959.3 774.6a7.7 7.7 0 0 1-3.8 6.6l-179.1 104.9a7.5 7.5 0 0 1-11.4-6.7l-0.6-208.5c0-2.8 1.5-5.2 3.8-6.7l179.1-104.8a7.5 7.5 0 0 1 7.6 0zM75.6 559.5l179.2 104.9c2.4 1.3 3.8 3.8 3.8 6.6l-0.6 208.5a7.7 7.7 0 0 1-3.8 6.6 7.5 7.5 0 0 1-7.5 0L67.5 781.3A7.7 7.7 0 0 1 63.7 774.7l0.6-208.5c0-5.9 6.3-9.6 11.3-6.7z m436.9-18.4l2.6 0.9 179.1 104.9a7.7 7.7 0 0 1 0 13.2l-177.9 104.8a7.7 7.7 0 0 1-7.5 0L329.6 660.1a7.7 7.7 0 0 1 0-13.2l177.9-104.8a7.5 7.5 0 0 1 7.5 0z m439.2-253.9l2.4 1a7.7 7.7 0 0 1 3.8 6.7l0.6 208.5a7.7 7.7 0 0 1-3.8 6.6l-179.1 104.8a7.5 7.5 0 0 1-11.3-6.6l-0.6-208.5c0-2.8 1.4-5.3 3.8-6.7l179.1-104.8a7.5 7.5 0 0 1 7.5 0zM76.4 288.2l179.1 104.9c2.4 1.3 3.8 3.8 3.8 6.6l-0.6 208.5a7.7 7.7 0 0 1-3.8 6.6 7.5 7.5 0 0 1-7.5 0l-179.1-104.8a7.7 7.7 0 0 1-3.8-6.6l0.6-208.5c0-5.9 6.3-9.6 11.3-6.7zM512.6 0.1l2.4 0.9 179.2 104.8a7.7 7.7 0 0 1 0 13.2L516.3 223.9a7.4 7.4 0 0 1-7.5 0L329.6 119a7.7 7.7 0 0 1 0-13.2L507.5 1a7.5 7.5 0 0 1 7.5 0z" fill="#0" p-id="3469"></path></svg>