<svg xmlns="http://www.w3.org/2000/svg" viewBox="0 0 1024 1024" version="1.1"><path d="M803.9 779.9l-63-82.8c-16.8-18.6-26.2-43.5-26.2-69.4V434.6c0-62-20.7-118.4-57.7-158.9a189.2 189.2 0 0 0-63-45.6 212.1 212.1 0 0 0-164.9 0c-23.7 10.5-44.8 25.7-62.8 45.4-37.1 40.7-57.8 97.1-57.8 159.1v193.3c0 25.9-9.5 50.7-26.8 70l-62.8 82.6 585.2-0.6zM128 759l86.8-114.3 2.8-3.3a19.6 19.6 0 0 0 5.4-13.6V434.6c0-82.7 28.3-159.7 80.1-216.6a271.9 271.9 0 0 1 91.4-65.9c72.2-32 161.8-32 234 0 34.6 15.4 65.3 37.6 91.3 65.9 51.8 56.8 80 133.8 80 216.6v193.3c0 5 1.9 9.6 4.3 12.2l3.3 3.7 87.3 114.6 1.3 106.9-767.7 0.8L128 759z m213.2 179.7h341.1V1024H341.1v-85.3zM426.5 0h170.5v85.3H426.5V0z" fill="#262626" p-id="3348"></path></svg>