<svg xmlns="http://www.w3.org/2000/svg" viewBox="0 0 1024 1024" version="1.1"><path d="M85.5 938.7H1024V1024H0v-85.3h0.2V0h85.3v938.7zM384.2 512a128 128 0 1 1 0-256 128 128 0 0 1 0 256z m298.7 298.7a128 128 0 1 1 0-256 128 128 0 0 1 0 256zM320.2 213.3a64 64 0 1 1 0-128 64 64 0 0 1 0 128z m-42.7 597.4a64 64 0 1 1 0-128 64 64 0 0 1 0 128z m426.7-341.4a64 64 0 1 1 0-128 64 64 0 0 1 0 128zM917.5 384a64 64 0 1 1 0-128 64 64 0 0 1 0 128zM746.9 170.7a64 64 0 1 1 0-128 64 64 0 0 1 0 128z m-298.7 512a64 64 0 1 1 0-128 64 64 0 0 1 0 128z" fill="#0" p-id="741"></path></svg>