<svg xmlns="http://www.w3.org/2000/svg" viewBox="0 0 1024 1024" version="1.1"><path d="M960 514.8H448v153.1H64v-311.7h896v158.6zM321 712.3L320 712.7V1024H64v-311.7h257zM64 0h896v311.7H64V0z m134.4 133.6v44.5h89.6v-44.5H198.4z m0 356.2v44.5h89.6v-44.5H198.4z m0 356.2v44.5h89.6v-44.5H198.4z m825.6 28.9C1024 958.1 958.9 1024 876.3 1024h-320C461.4 1024 384 945.6 384 849.9c0-84.9 59.1-155.2 141.5-171.8A204.6 204.6 0 0 1 704 576c95.2 0 176.3 63.2 202.1 152.3A151.5 151.5 0 0 1 1024 874.8z" fill="#262626" p-id="3018"></path></svg>