<svg xmlns="http://www.w3.org/2000/svg" viewBox="0 0 1024 1024" version="1.1"><path d="M469.3 570.2v-256h85.4v256h128L512 756.3 341.3 570.2h128zM1024 640.1C1024 782.9 919.9 896 787.6 896h-512C123.9 896 0 761.6 0 597.5 0 452 94.7 331.5 226.4 303 284.2 195.5 391.8 128 512 128c152.3 0 282.1 108.4 323.4 261.1C941.9 413.4 1024 519 1024 640.2z m-259.2-205.3c-24.4-129-128.9-222.7-252.8-222.7-97.3 0-183 57.3-224.6 147.5l-9.3 20.2-20.9 2.9c-103.4 14.4-178.4 104.3-178.4 214.7 0 118 88.8 214.4 196.9 214.4h512c88.3 0 157.5-75.1 157.5-171.7 0-88.1-65.9-164.9-145-171.8l-29.5-2.6-5.9-31z" fill="#262626" p-id="2270"></path></svg>