<svg xmlns="http://www.w3.org/2000/svg" viewBox="0 0 1024 1024" version="1.1"><path d="M320 935V1024H64v-311.7h257L320 712.7v88.6H153.6v133.6H320z m640-356.2H448v89.1H64v-311.7h896v222.6zM153.6 445.2v133.5h716.8V445.2H153.6zM64 0h896v311.7H64V0z m89.6 89v133.6h716.8V89H153.6z m44.8 44.5h89.6v44.5H198.4v-44.5z m0 356.2h89.6v44.5H198.4v-44.5z m0 356.2h89.6v44.5H198.4v-44.5z m825.6 28.9C1024 958.1 958.9 1024 876.3 1024h-320C461.4 1024 384 945.6 384 849.9c0-84.9 59.1-155.2 141.5-171.8A204.6 204.6 0 0 1 704 576c95.2 0 176.3 63.2 202.1 152.3A151.5 151.5 0 0 1 1024 874.8z m-96 0a55.6 55.6 0 0 0-42-52.5l-56.1-12-16-55.2A114.2 114.2 0 0 0 704 672c-40.3 0-76.1 20.6-95.2 54l-21.7 37.6-42.6 8.6c-38.4 7.7-64.5 39.3-64.5 77.7 0 43 34.8 78.1 76.3 78.1h320c29.3 0 51.7-22.7 51.7-53.2z" fill="#0" p-id="3029"></path></svg>