<svg xmlns="http://www.w3.org/2000/svg" viewBox="0 0 1024 1024" version="1.1"><path d="M903.2 562.2c2.4-21.8 3.6-38.6 3.6-50.2 0-17.4-1.6-33.8-3.6-50.2l120.6-102.7-113.7-204.5-158.1 52.7a387.3 387.3 0 0 0-89-50.2L633.9 0H396.4l-35.3 157.2c-32.1 12.8-61.6 30.2-89 50.2l-155.8-52.7L0.2 359.2 121 461.8c-2.1 16.4-3.7 33.3-3.7 50.2s1.6 33.8 3.7 50.2L12.5 657.1 128 866.8l144-50.2c27.4 20.5 56.9 37.4 89 50.2L394.7 1024h239.2l29.2-157.2c32.1-12.8 61.6-30.2 89-50.2l145.2 50.2 125.1-209.7-119.2-94.9z m-104.3-87.6c2.1 15.9 2.6 26.6 2.6 37.4 0 10.8-1 22-2.6 37.4l-7.4 57.9 46.8 35.8 56.8 43-36.9 62-66.8-26.1-54.7-21.5-47.4 34.8a310.4 310.4 0 0 1-65.9 37.4l-55.7 22-8.4 57.9-10.5 69.1H475.3l-10-69.1-8.4-57.9-55.8-22a300.8 300.8 0 0 1-64.7-36.4l-47.9-35.8-55.7 22-66.9 26.1-36.9-62 56.9-43 46.8-35.8-7.4-57.9A400.8 400.8 0 0 1 222.6 512c0-10.2 1.1-22 2.7-37.4l7.4-57.9-46.8-35.8-56.9-43 36.9-62 66.9 26.1 54.7 21.5 47.4-34.8a310.4 310.4 0 0 1 65.8-37.4l55.8-22 8.4-57.9 10.5-69.1H548.5l10 69.1 8.4 57.9 55.8 22a300.8 300.8 0 0 1 64.8 36.4l47.9 35.8 55.8-22 66.8-26.1 36.9 62-56.3 43.5-46.8 35.8 7.4 57.9zM512 320a192 192 0 1 0 0 384 192 192 0 1 0 0-384z m0 288c-52.8 0-96-43.2-96-96S459.2 416 512 416s96 43.2 96 96S564.8 608 512 608z" fill="#0" p-id="2237"></path></svg>