<svg xmlns="http://www.w3.org/2000/svg" viewBox="0 0 1024 1024" version="1.1"><path d="M0 576.5h98a419.6 419.6 0 0 0 349.4 350.2V1024A516.2 516.2 0 0 1 0 576.5z m0-129A516.2 516.2 0 0 1 447.5 0v98.2a419.6 419.6 0 0 0-349.2 349.2H0zM576.5 1024v-97.2a419.5 419.5 0 0 0 350.3-350.3H1024A516.2 516.2 0 0 1 576.5 1024zM1024 447.5h-97.3a419.6 419.6 0 0 0-350.2-349.4V0A516.2 516.2 0 0 1 1024 447.5z m-232.3-214.1L622.8 622.7l-389.4 169L403.3 403.2l388.4-169.9zM512 576.5a64.5 64.5 0 1 0 0-129 64.5 64.5 0 0 0 0 129z" fill="#0" p-id="3106"></path></svg>