<svg xmlns="http://www.w3.org/2000/svg" viewBox="0 0 1024 1024" version="1.1"><path d="M883.6 674.9C732.2 864 512.4 1024 512.4 1024s-224.3-157.4-375.8-349.1h112.6c20.6 23.1 42.9 46.5 66.8 70.1a2134.3 2134.3 0 0 0 195.6 170.2 2402.9 2402.9 0 0 0 196.7-174.9c22-22 42.8-43.9 62.1-65.5h113.1z m126.4-218.2H919c13.1-32 19.5-60.8 19.5-85.5 0-122.6-89.6-219.9-197.4-219.9-62.6 0-120.7 33-158.2 88.9L512.4 345.3l-70.4-105.1c-37.6-55.9-95.6-89-158.3-89C159.5 151.3 86.4 223.4 86.4 371.2c0 25.5 6 54.1 17.9 85.5H14.1A305.5 305.5 0 0 1 1 371.2c0-211.2 126.7-307.2 282.9-307.2 94.1 0 177.2 50.1 228.6 126.8C563.9 114.1 647 64 741.1 64 897.3 64 1024 201.6 1024 371.2c0 27.8-5 56.4-14.1 85.5zM544.6 615h-55.8L382.7 448.4 272.6 615H0V527.7h227.2l156.9-237.2L522.2 507.4l114.9-137.4 134.4 157.7H1024v87.3h-291.3l-94.9-111.4-93.1 111.4z" fill="#0" p-id="3425"></path></svg>