<svg xmlns="http://www.w3.org/2000/svg" viewBox="0 0 1024 1024" version="1.1"><path d="M449.7 891.8a486.2 486.2 0 0 1-55.9-10.7 311.7 311.7 0 0 1-104.4-46.7 233.5 233.5 0 0 1-71.9-81.3c-17.7-32.9-26.2-71.9-25.6-117.2h161.9c0 24.6 4.6 45.6 13.8 62.7 9.2 17.1 21.4 31 36.7 41.6 15.2 10.6 33.2 18.6 53.8 23.7 20.6 5.1 41.9 7.7 63.9 7.7 14.9 0 30.9-1.2 48-3.6 17-2.4 33-7 47.9-13.9 14.9-6.8 27.3-16.3 37.2-28.3 9.9-12 14.9-27.2 14.9-45.7 0-19.9-6.6-36-19.7-48.4a157.2 157.2 0 0 0-51.6-30.8 529 529 0 0 0-72.4-21.6 2058.7 2058.7 0 0 1-82-20.5 747.1 747.1 0 0 1-83.1-25.2 288.5 288.5 0 0 1-72.4-38.5 183.4 183.4 0 0 1-51.6-59.1c-13.1-23.7-19.7-52.2-19.7-85.8 0-37.8 8.3-70.4 25-98.2 16.8-27.8 38.6-50.9 65.5-69.4 27-18.5 57.5-32.2 91.6-41.1 16.6-4.4 33.3-7.7 50-9.9V0h125.2v133.1c14.1 1.9 27.8 4.5 41.5 7.7 36.5 8.6 69.1 22.5 97.4 41.7 28.4 19.2 50.9 43.7 67.6 73.5 16.6 29.8 25 65.9 25 108.5h-161.8c-1.4-22-6.2-40.1-14.4-54.5a92.2 92.2 0 0 0-32.4-33.9 140.2 140.2 0 0 0-46.3-17.5 295 295 0 0 0-57-5.1c-13.5 0-27 1.3-40.4 4.1-13.5 2.8-25.8 7.6-36.7 14.4a91.1 91.1 0 0 0-27.2 25.7c-7 10.2-10.6 23.3-10.6 39 0 14.4 2.8 26 8.5 34.9 5.7 9 16.8 17.2 33.5 24.7 16.6 7.6 39.7 15 69.2 22.6 29.4 7.6 68 17.2 115.5 28.8 14.2 2.8 33.9 7.7 59.1 14.9 25.2 7.2 50.2 18.7 75.1 34.4 24.8 15.7 46.3 36.9 64.4 63.2 18.1 26.4 27.1 60.2 27.1 101.2 0 33.6-6.7 64.8-20.2 93.6-13.4 28.8-33.5 53.6-60.2 74.6-26.6 20.9-59.6 37.1-99 48.8a420.5 420.5 0 0 1-77.7 14.7V1024H449.7v-132.2z" fill="#0" p-id="928"></path></svg>