<svg t="1735715598790" class="icon" viewBox="0 0 1024 1024" version="1.1" xmlns="http://www.w3.org/2000/svg" p-id="10880" width="200" height="200"><path d="M176 64h672c32 0.64 58.496 11.52 79.488 32.512 20.992 20.992 31.808 47.488 32.512 79.488v672c-0.64 32-11.52 58.496-32.512 79.488-20.992 20.992-47.488 31.808-79.488 32.512H176c-32-0.64-58.496-11.52-79.488-32.512-20.992-20.992-31.808-47.488-32.512-79.488V176c0.64-32 11.52-58.496 32.512-79.488 20.992-20.992 47.488-31.808 79.488-32.512z m151.04 174.016c-77.376 52.672-125.184 121.984-143.552 208-18.304 86.016-3.136 168.96 45.568 248.96 53.312 76.672 122.944 124.16 208.96 142.528 86.016 18.304 168.64 2.816 248-46.464 9.344-5.376 17.664-11.392 24.96-18.048a18.688 18.688 0 0 0 7.04-12.032 18.112 18.112 0 0 0-3.008-12.992l-15.04-22.976a45.76 45.76 0 0 0-64.96-13.952c-56.64 34.624-115.52 45.44-176.512 32.512-60.992-13.056-110.144-46.848-147.456-101.568-35.392-56.64-46.528-115.456-33.536-176.512 12.992-60.992 46.848-110.784 101.504-149.44a237.696 237.696 0 0 1 140.992-37.056c49.984 2.688 95.36 20.352 136 53.056 1.344 0.64 2.368 1.92 3.008 3.968 3.328 4.032 4.352 8.32 3.008 12.992a24 24 0 0 1-8 12.032L457.024 489.92a45.76 45.76 0 0 0-20.992 29.504 47.808 47.808 0 0 0 6.016 35.456l16 24.064a19.84 19.84 0 0 0 12.032 8.512 19.328 19.328 0 0 0 14.016-2.56l307.968-200c8-6.656 10.368-14.656 7.04-23.936v-1.024l-15.04-27.008c-53.312-76.032-123.008-123.2-208.96-141.504-86.016-18.304-168.704-2.816-248.064 46.528z m459.968 266.944l-62.016 40a19.84 19.84 0 0 0-8.512 12.032 14.656 14.656 0 0 0 3.456 12.992l40 62.016a19.84 19.84 0 0 0 12.032 8.512 14.656 14.656 0 0 0 12.992-3.456l30.976-20.032a53.12 53.12 0 0 0 24.512-34.496 53.504 53.504 0 0 0-8.512-41.536l-19.968-30.976a20.928 20.928 0 0 0-12.032-7.488 16.512 16.512 0 0 0-12.992 2.496h0.064z" fill="#0" p-id="10881"></path></svg>