<svg xmlns="http://www.w3.org/2000/svg" viewBox="0 0 1024 1024" version="1.1"><path d="M128 300v-1.3h1.4L426.7 0.3V0H896v1024H128V300z m121.9-1.3h176.8V121.2L249.9 298.7zM213.4 384v554.7h597.3V85.3H512V384H213.3z m35.5 387.4L302.8 768c1.2 8.8 3.5 15.4 7.1 20a30 30 0 0 0 25 11.1c8.1 0 14.3-1.9 18.7-5.7a17 17 0 0 0 6.6-13.2 16.8 16.8 0 0 0-6.3-12.7c-4.2-3.7-13.8-7.3-29-10.6-24.8-5.6-42.6-13-53.1-22.2a44.8 44.8 0 0 1-16-35.4 48 48 0 0 1 8.2-26.7 54.3 54.3 0 0 1 24.6-19.8c11-4.8 26-7.2 45.1-7.2 23.4 0 41.2 4.4 53.5 13.1 12.4 8.7 19.6 22.6 22 41.6l-53.4 3.1c-1.4-8.3-4.4-14.2-9-18a28.7 28.7 0 0 0-18.8-5.6c-6.6 0-11.5 1.4-14.9 4.2a12.8 12.8 0 0 0-5 10.2c0 2.9 1.4 5.5 4.2 7.9 2.6 2.4 9 4.7 18.9 6.7 24.8 5.4 42.5 10.8 53.2 16.2 10.8 5.4 18.6 12.2 23.4 20.4a51.5 51.5 0 0 1 7.3 27.1c0 11.8-3.2 22.6-9.7 32.5a61 61 0 0 1-27.3 22.6 110.1 110.1 0 0 1-44.2 7.7c-31.2 0-52.7-6-64.7-18a71 71 0 0 1-20.4-45.8z m349.2 33.9c7.1 4.9 11.7 8 13.9 9.3 3.2 1.8 7.7 3.9 13.1 6.4l-15.7 31.7a183.7 183.7 0 0 1-23.5-13.7 201.3 201.3 0 0 1-16.3-11.9c-12.5 5.4-28.2 8.1-47 8.1-27.8 0-49.8-7.2-65.9-21.8-19-17.2-28.5-41.3-28.5-72.3 0-30.2 8.3-53.6 25-70.4 16.6-16.6 39.8-25 69.6-25 30.5 0 54 8.1 70.5 24.5 16.6 16.3 24.8 39.7 24.8 70.1 0 27.1-6.7 48.8-20 65z m-43.3-29c4.5-8.1 6.7-20.2 6.7-36.2 0-18.6-3.5-31.7-10.3-39.7a35.7 35.7 0 0 0-28.4-11.8 34.5 34.5 0 0 0-27.4 12.2c-7 8.1-10.5 20.7-10.5 37.8 0 20 3.4 34 10.2 42.1 6.8 8.1 16.2 12.2 28.2 12.2 3.8 0 7.4-0.4 10.9-1.2a70.1 70.1 0 0 0-22.5-13l8.8-20.4a48.1 48.1 0 0 1 11.7 3.3c2.8 1.3 8.3 4.9 16.3 10.5 1.9 1.3 4 2.8 6.3 4.2z m85.5-127.5h56.6v138.1h88.4V832h-145v-183.2z" fill="#262626" p-id="2050"></path></svg>