<svg xmlns="http://www.w3.org/2000/svg" viewBox="0 0 1024 1024" version="1.1"><path d="M983 262.2h-188.9c17.4-26.5 27.6-57.9 27.6-91.5C821.8 76.6 742.5 0 645.1 0 592.1 0 544.4 22.8 512 58.6A179.1 179.1 0 0 0 378.9 0C281.5 0 202.2 76.5 202.2 170.7c0 33.6 10.1 65 27.6 91.5H41a40.3 40.3 0 0 0-41 39.6V549.1c0 5.4 4.6 9.9 10.2 9.9h51.2v425.5c0 21.9 18.3 39.6 41 39.6h819.2c22.7 0 41-17.7 41-39.6V559h51.2c5.6 0 10.2-4.5 10.2-9.9V301.8a40.3 40.3 0 0 0-41-39.6z m-427.5-91.5c0-47.7 40.2-86.6 89.6-86.6 49.4 0 89.6 38.8 89.6 86.6s-40.2 86.5-89.6 86.5h-89.6V170.7zM378.9 84.1c49.4 0 89.6 38.8 89.6 86.6v86.5h-89.6c-49.4 0-89.6-38.8-89.6-86.5 0-47.7 40.2-86.6 89.6-86.6zM87 474.9V346.2h381.4v128.6H87z m61.4 84.1h320v380.9h-320V559z m727 380.9h-320V559h320v380.9z m61.4-465H555.5V346.2h381.4v128.6z" fill="#262626" p-id="642"></path></svg>