<svg xmlns="http://www.w3.org/2000/svg" viewBox="0 0 1024 1024" version="1.1"><path d="M862.5 823.9a167.9 167.9 0 0 1-51.8 8.1h-149.3V481.7h199.1V394.1c0-169.5-155.8-306.6-348.4-306.6S163.6 224.6 163.6 394.1v87.6h199V832H213.4C130.8 832 64 773.3 64 700.6v-306.6C64 176.5 264.6 0 512 0s448 176.4 448 394.1V896a128 128 0 0 1-128 128H477.6v-86.7h320.9a64 64 0 0 0 64-64v-49.3z m-2-254.7H761v175.2h49.8c27.3 0 49.7-19.7 49.7-43.8V569.3z m-597.3 0H163.6v131.4c0 24.1 22.4 43.8 49.7 43.8h49.8V569.3z" fill="#262626" p-id="2094"></path></svg>