<svg xmlns="http://www.w3.org/2000/svg" viewBox="0 0 1024 1024" version="1.1"><path d="M0 256h1024v512H0V256z m194.2 155.5V640h37.4V538.9h115.8V640h37.4V411.5H347.5v95.4H231.7V411.5h-37.4zM531.2 407c-35.2 0-62.7 11.2-82.6 34.2-19.2 21.8-28.5 49.9-28.5 84.8 0 34.6 9.3 62.7 28.5 84.5 19.8 22.4 47.4 33.9 82.6 33.9 34.9 0 62.4-11.2 82.6-33.6 19.2-21.4 28.8-49.6 28.8-84.8 0-35.2-9.6-63.7-28.8-85.1-20.2-22.7-47.7-33.9-82.6-33.9z m0 33c23.7 0 41.9 7.4 54.7 22.7 12.5 15.4 18.9 36.5 18.9 63.4 0 26.9-6.4 47.7-18.9 62.7-12.8 15-31 22.7-54.7 22.7s-42.2-8-55-23.7c-12.5-15.4-18.6-35.8-18.6-61.8 0-26.2 6.1-46.7 18.6-62.1 13.1-16 31.4-24 55-24z m129-28.5v32h74.9V640h37.4V443.5h74.9v-32h-187.2z" fill="#0" p-id="3392"></path></svg>