<svg xmlns="http://www.w3.org/2000/svg" viewBox="0 0 1027 1024" version="1.1"><path d="M1027.8 512a509.4 509.4 0 0 1-511.7 510.1C228.9 1022.1 0 791.4 0 512A509.4 509.4 0 0 1 511.7064 1.9C798.9 1.9 1027.8 232.6 1027.8 512z m-379.6-21.1L517.6 222.7 388.7 490.9l-172.2-130.2 49.3 320.2a25.6 25.6 0 0 0-0.2-3.3c2.6 19.8 17.2 36.2 36.9 43a33.3 33.3 0 0 0-5.2-1.3c42 14.3 124.3 23.6 219.1 22.8 95.4-0.8 173.4-10.2 215.9-25.3 19.7-6.8 34.4-23.3 36.9-43.1l51.5-313-172.5 130.2z" fill="#0" p-id="2985"></path></svg>