<svg xmlns="http://www.w3.org/2000/svg" viewBox="0 0 1024 1024" version="1.1"><path d="M443.3 486.7c-29.4-47.1-41.1-99.9-41.1-158.7A291 291 0 0 1 696 34.1 291 291 0 0 1 989.9 328a291 291 0 0 1-293.9 293.8c-64.6 0-117.5-17.6-170.4-52.9l-135.2 135.2 64.6 64.7-82.3 82.3-64.6-64.6-41.1 41.2 64.6 64.6-82.3 82.3L102.4 827.6l340.9-340.9z m252.7-335.1c-99.9 0-176.3 76.5-176.3 176.3s76.4 176.3 176.3 176.3c99.9 0 176.3-76.4 176.3-176.3 0-99.9-82.3-176.3-176.3-176.3z" fill="#262626" p-id="675"></path></svg>