<svg xmlns="http://www.w3.org/2000/svg" viewBox="0 0 1024 1024" version="1.1"><path d="M593.9 715.6a10.7 10.7 0 0 0-15 0L424.2 870.4c-71.7 71.7-192.6 79.2-271.7 0-79.2-79.2-71.6-200 0-271.6l154.8-154.8a10.7 10.7 0 0 0 0-15l-53-53a10.7 10.7 0 0 0-15 0L84.5 530.7a287.9 287.9 0 0 0 0 407.5 288 288 0 0 0 407.5 0l154.8-154.8a10.7 10.7 0 0 0 0-15l-52.7-52.7z m344.4-631.2a288.3 288.3 0 0 1 0 407.6l-154.8 154.8a10.7 10.7 0 0 1-15 0l-53-53a10.7 10.7 0 0 1 0-15.1l154.8-154.7c71.7-71.7 79.2-192.4 0-271.7-79.1-79.2-200-71.7-271.7 0L443.9 307.2a10.7 10.7 0 0 1-15 0l-52.9-52.9a10.7 10.7 0 0 1 0-15l154.9-154.8a287.9 287.9 0 0 1 407.4 0z m-296.3 240.9l52.7 52.7a10.7 10.7 0 0 1 0 15l-301.5 301.4a10.7 10.7 0 0 1-15 0l-52.7-52.7a10.7 10.7 0 0 1 0-15l301.6-301.5a10.7 10.7 0 0 1 15 0z" fill="#0" p-id="653"></path></svg>