<svg xmlns="http://www.w3.org/2000/svg" viewBox="0 0 1024 1024" version="1.1"><path d="M153.6 469.3v469.4h716.8V469.3H153.6zM64 384h896v640H64V384z m403.2 329.9c-26.8-14.7-44.8-42.3-44.8-73.9 0-47.1 40.1-85.3 89.6-85.3 49.5 0 89.6 38.2 89.6 85.3 0 31.6-18 59.1-44.8 73.9v116a44.8 44.8 0 0 1-89.6 0v-116zM332.8 384h358.4V256c0-94.3-80.3-170.7-179.2-170.7-98.9 0-179.2 76.4-179.2 170.7v128zM512 0c148.5 0 268.8 114.6 268.8 256v128H243.2V256c0-141.4 120.3-256 268.8-256z" fill="#0" p-id="1918"></path></svg>