<svg xmlns="http://www.w3.org/2000/svg" viewBox="0 0 1024 1024" version="1.1"><path d="M960 0v1024H64V0h896zM288 832a32 32 0 1 0 0 64 32 32 0 0 0 0-64z m97.3 0v64h398.1v-64H385.3zM288 704a32 32 0 1 0 0 64 32 32 0 0 0 0-64z m96 0v64h399.4v-64H384z m312.2-410.2C683.8 200.1 606 128 511.9 128S340.2 200.2 327.7 293.8C252 299 192 364 192 443.4c0 82.8 65.3 150 145.8 150 2.8 0 5.6-0.2 8.3-0.3v0.3h341.8v-0.1C767.6 592.4 832 525.6 832 443.3c-0.1-79.4-60-144.3-135.8-149.6z" fill="#262626" p-id="3194"></path></svg>