<svg t="1735717260706" class="icon" viewBox="0 0 1024 1024" version="1.1" xmlns="http://www.w3.org/2000/svg" p-id="12042" width="200" height="200"><path d="M950.784 122.3168a51.2 51.2 0 0 0-51.2-51.2H136.5504a51.2 51.2 0 0 0-51.2 51.2v787.9168c0 23.552 19.0976 42.6496 42.6496 42.6496h780.1344c23.552 0 42.6496-19.0976 42.6496-42.6496V122.2656z m-788.6848 25.5488H873.984V876.032H162.0992V147.8656z" fill="#3A8DFF" p-id="12043"></path><path d="M704.8192 458.496H623.104c2.1504-12.5952 6.4512-22.1184 12.9024-28.5696 6.7584-6.7584 15.6672-9.8304 27.3408-9.8304 24.576 0 38.4 12.5952 41.472 38.4z" fill="#3A8DFF" p-id="12044"></path><path d="M950.4768 108.4416a42.6496 42.6496 0 0 0-42.3424-37.376H128.0512l-5.376 0.3584a42.6496 42.6496 0 0 0-37.3248 42.3424v721.2032h281.5488l18.1248-0.3584a422.4 422.4 0 0 0 106.8544-18.5344l20.3264-5.9904c53.6064-15.104 102.5024-22.6304 146.7392-22.6304 47.104 0 97.4336 8.5504 150.784 25.7536a453.7344 453.7344 0 0 0 138.9568 21.76h2.1504V113.7664l-0.3584-5.3248zM356.4544 403.456v151.1424H320.512V335.36h42.0864L437.248 507.392h1.2288l74.3424-172.032h42.0864v219.3408h-35.9424V403.5072h-1.2288l-64.512 151.1424h-31.0272l-64.512-151.1424h-1.2288zM716.8 540.8256c-14.1312 11.9808-31.6416 18.1248-52.8384 18.1248-23.6544 0-42.3936-7.3728-56.2176-21.8112-14.7456-15.0528-22.1184-35.6352-22.1184-62.0544 0-23.6544 6.7584-43.3152 20.8896-59.2896 13.5168-16.2816 32.256-24.2688 55.9104-24.2688 26.112 0 46.08 8.6016 59.904 26.4192 12.5952 15.9744 19.0464 38.4 19.0464 66.9696h-118.8864c1.2288 14.7456 5.2224 26.112 11.9808 33.792 6.7584 7.68 16.5888 11.6736 29.184 11.6736 10.752 0 19.3536-2.4576 26.112-7.3728 5.2224-3.9936 9.8304-10.4448 14.1312-19.3536h35.0208a72.1408 72.1408 0 0 1-22.1184 37.1712z" fill="#0" p-id="12045"></path></svg>