<svg xmlns="http://www.w3.org/2000/svg" viewBox="0 0 1024 1024" version="1.1"><path d="M662 150h180.1a32 32 0 0 1 32 32v180.1l127.4 127.4a32 32 0 0 1 0 45.2l-127.4 127.4v180a32 32 0 0 1-32 32h-180.1l-127.4 127.4a32 32 0 0 1-45.2 0l-127.4-127.4H182a32 32 0 0 1-32-32v-180.1l-127.4-127.4a32 32 0 0 1 0-45.2l127.4-127.4V182a32 32 0 0 1 32-32h180.1l127.4-127.4a32 32 0 0 1 45.2 0l127.4 127.4zM476.8 217.2a32 32 0 0 0-32 32v298a32 32 0 0 0 32 32h80.8a32 32 0 0 0 32-32V249.2a32 32 0 0 0-32-32H476.7z m0 434.4a32 32 0 0 0-32 32v80.8a32 32 0 0 0 32 32h80.8a32 32 0 0 0 32-32v-80.8a32 32 0 0 0-32-32H476.7z" fill="#0" p-id="2930"></path></svg>