<svg xmlns="http://www.w3.org/2000/svg" viewBox="0 0 1024 1024" version="1.1"><path d="M891.3 491.1C960 416.2 960 295.1 891.3 220.2c-68.8-74.6-180.1-74.6-248.8 0L451.2 428.6 355.4 532.8a78.5 78.5 0 0 0 0 104.2 64 64 0 0 0 95.7 0l229.7-250a38.5 38.5 0 0 1 39.7-12.4 42.6 42.6 0 0 1 29.1 31.7 46.8 46.8 0 0 1-11.4 43.1l-229.7 250a142.6 142.6 0 0 1-105.3 47.4 142.6 142.6 0 0 1-105.2-47.4c-58-63.4-58-165.9 0-229.2L527.7 220.2l57.5-62.5c100.2-109.2 263.4-109.1 363.6 0 100.3 109.1 100.3 286.6 0 395.8l-191.4 208.3-134 145.8C554.9 982.3 461.9 1024.2 365 1024c-96.9 0.2-189.9-41.7-258.4-116.3C37.8 832.8 0 733 0 626.5c0-106.5 37.8-206.4 106.6-281.3L412.8 12a38.3 38.3 0 0 1 56.4 1 47.1 47.1 0 0 1 1 61.4L164 407.8c-53.3 57.9-83.2 136.7-82.8 218.7 0 82.9 29.4 160.6 82.8 218.7 53.2 58 125.6 90.5 200.9 90.2 76.2 0 147.6-32 200.9-90.2l133.2-145 94-102.3 21.6-23.6 76.6-83.3z" fill="#0" p-id="2853"></path></svg>