<svg xmlns="http://www.w3.org/2000/svg" viewBox="0 0 1024 1024" version="1.1"><path d="M626.2 773.6l37.9-71.2a64 64 0 0 1 72-32l174.7 43.5a64 64 0 0 1 48.5 62.1v71.9H960V960C465.2 960 64 558.8 64 64h112v0.3h70.4a64 64 0 0 1 62.1 48.5l43.5 174.7A64 64 0 0 1 320 359.5L249.9 396.8a787.1 787.1 0 0 0 376.3 376.8z m207.9-7.2l-54.8-13.7a32 32 0 0 0-36 16l-29.6 55.5 144.6 36v-62.8a32 32 0 0 0-24.3-31z m-569.5-528.6l-14.6-54.6a32 32 0 0 0-31.5-23.7l-62.8 1 38.6 144 54.9-30.5a32 32 0 0 0 15.4-36.3z" fill="#262626" p-id="2105"></path></svg>