<svg xmlns="http://www.w3.org/2000/svg" viewBox="0 0 1024 1024" version="1.1"><path d="M354.9 125.9A164.2 164.2 0 0 1 513.9 0c76.4 0 140.6 52.9 158.7 124.5a463.6 463.6 0 0 1 301.4 435.8c0 29.5-2.8 58.5-8.1 86.5 35.6 30.4 58.1 75.8 58.1 126.5 0 91.5-73.3 165.6-163.7 165.6-22.4 0-43.8-4.5-63.2-12.8A453.1 453.1 0 0 1 515.5 1024c-104.1 0-200.3-35.2-277.2-94.4-22.3 11.5-47.7 18.1-74.5 18.1C73.3 947.7 0 873.5 0 782.1c0-54.2 25.8-102.4 65.6-132.5a471.2 471.2 0 0 1-8.4-89.2 463.7 463.7 0 0 1 297.7-434.4z m7.9 103.6a364.7 364.7 0 0 0-208.6 330.6c0 19.2 1.5 38.1 4.4 56.5l5.2-0.1c90.4 0 163.7 74.1 163.7 165.6a166.4 166.4 0 0 1-18.8 77.1 355.7 355.7 0 0 0 205.7 65.2 355.7 355.7 0 0 0 205.8-65.3 166.3 166.3 0 0 1-23.6-85.8c0-91.4 73.3-165.6 163.7-165.6 3.7 0 7.4 0.1 11.1 0.4a371.8 371.8 0 0 0 3.1-48.1c0-146.8-85.8-273.2-209.4-330.9a163.8 163.8 0 0 1-151.2 102 163.8 163.8 0 0 1-151-101.8z" fill="#262626" p-id="2886"></path></svg>