<svg xmlns="http://www.w3.org/2000/svg" viewBox="0 0 1024 1024" version="1.1"><path d="M85.3 85.3V384H384V85.3H85.3zM0 0h469.2v469.2H0V0z m170.6 170.6h128v128h-128v-128zM0 554.6h469.2v469.2H0V554.6z m85.3 85.3v298.6H384V639.9H85.3z m85.3 85.3h128v128h-128v-128zM554.6 0h469.2v469.2H554.6V0z m85.3 85.3V384h298.6V85.3H639.9z m383.9 682.6H1024v85.4h-298.8V639.9H639.9V1023.9H554.6V554.6h255.9v213.2h128V554.6h85.3v213.2z m-298.6-597.2h128v128h-128v-128z m298.6 853.2h-85.3v-85.3h85.3v85.3z m-213.3 0h-85.3v-85.3h85.3v85.3z" fill="#262626" p-id="609"></path></svg>