<svg xmlns="http://www.w3.org/2000/svg" viewBox="0 0 1024 1024" version="1.1"><path d="M512 1024A512 512 0 1 1 512 0a512 512 0 0 1 0 1024z m-63.2-320.1V832h130.6v-128.1H448.8zM311 416.6h122.3c0-15 1.7-29 5-42a101.1 101.1 0 0 1 15.4-34.1c7-9.7 15.9-17.5 26.7-23.3 10.8-5.8 23.7-8.8 38.7-8.8 22.2 0 39.6 6.1 52 18.3 12.5 12.2 18.7 31 18.7 56.6 0.6 15-2 27.5-7.9 37.4-5.8 10-13.4 19.2-22.9 27.5-9.4 8.3-19.6 16.6-30.7 25-11.1 8.3-21.7 18.1-31.7 29.4a171.9 171.9 0 0 0-26.2 41.2c-7.4 16.1-12 36-13.7 59.9v37.4H569v-31.6c2.2-16.6 7.7-30.5 16.3-41.6 8.6-11.1 18.4-20.9 29.5-29.5 11.1-8.6 22.9-17.2 35.4-25.8a162 162 0 0 0 59.9-75.3c6.9-17.3 10.4-39.2 10.4-65.8a149.3 149.3 0 0 0-44.9-104c-16.1-16.1-37.2-29.5-63.6-40.3-26.4-10.9-59.2-16.3-98.6-16.3-30.5 0-58.1 5.1-82.8 15.4a183.7 183.7 0 0 0-63.2 42.9A195.4 195.4 0 0 0 326.4 334.2c-9.7 25-14.8 52.5-15.4 82.4z" fill="#0" p-id="1588"></path></svg>