<svg xmlns="http://www.w3.org/2000/svg" viewBox="0 0 1024 1024" version="1.1"><path d="M512 448c-70.4 0-128 57.6-128 128s57.6 128 128 128 128-57.6 128-128-57.6-128-128-128z m372-448l141.2 156.9L1024 910.2 1023.9 1024H0.2L0 910.2l0.2-753.3L137.5 0h746.5zM120.6 113.8h782.3l-52.9-57H167.2l-46.7 57zM758.7 576a237.4 237.4 0 0 0-2.3-31.6l69.6-53a15.9 15.9 0 0 0 3.7-20.6L763.9 360.3c-4.2-6.9-12.7-9.6-20.2-6.9l-81.7 32c-17-12.8-35.3-23.3-55.5-31.5l-12.2-84.6A17 17 0 0 0 577.7 256H446.2a16.9 16.9 0 0 0-16.4 13.7l-12.2 84.6a253.8 253.8 0 0 0-55.5 31.6l-81.7-32a16.8 16.8 0 0 0-20.2 6.8L194.3 471.3a15.9 15.9 0 0 0 3.7 20.6l69.6 53A225.2 225.2 0 0 0 265.3 576c0 10.5 0.9 21.1 2.3 31.6l-69.6 53a15.9 15.9 0 0 0-3.7 20.6l65.8 110.6c4.2 6.9 12.7 9.6 20.2 6.9l81.7-32c17 12.8 35.3 23.3 55.5 31.5l12.2 84.6a17 17 0 0 0 16.5 13.2h131.6a16.9 16.9 0 0 0 16.4-13.7l12.2-84.6c19.8-8.2 38.5-18.8 55.5-31.6l81.7 32c7.6 2.8 16 0 20.2-6.8l65.8-110.6a15.9 15.9 0 0 0-3.7-20.6l-69.6-53c1.4-10 2.3-20.6 2.3-31.1z" fill="#0" p-id="3073"></path></svg>