<svg xmlns="http://www.w3.org/2000/svg" viewBox="0 0 1024 1024" version="1.1"><path d="M512 88.7L149.3 239.4v225.1c0 54.5 9.5 107.3 28.7 158.7a516.5 516.5 0 0 0 202.2 253.7A460.8 460.8 0 0 0 512 936.3a460.9 460.9 0 0 0 131.7-59.2 517.5 517.5 0 0 0 202.3-253.8 451.5 451.5 0 0 0 28.7-158.7V239.4L512 88.7z m448 122.2v253.6c0 64.6-11.3 127.4-33.9 188.4a602.4 602.4 0 0 1-235.5 295.4A548.5 548.5 0 0 1 512 1024a548.4 548.4 0 0 1-178.6-75.8A601.7 601.7 0 0 1 97.9 652.8 536.2 536.2 0 0 1 64 464.5V211c0-17.3 10.4-32.8 26.2-39.4L495.7 3.3a42.8 42.8 0 0 1 32.8 0l405.3 168.3c15.9 6.6 26.3 22.1 26.3 39.4zM460.8 564.4L699.7 320 768 389.8 460.8 704 256 494.5l68.3-69.8L460.8 564.3z" fill="#0" p-id="686"></path></svg>