<svg xmlns="http://www.w3.org/2000/svg" viewBox="0 0 1024 1024" version="1.1"><path d="M384 960c-47.1 0-85.3-36.5-85.3-81.5S336.9 797.1 384 797.1s85.3 36.5 85.3 81.4C469.3 923.5 431.1 960 384 960z m426.7 0c-47.2 0-85.4-36.5-85.4-81.5s38.2-81.4 85.4-81.4c47.1 0 85.3 36.5 85.3 81.4C896 923.5 857.8 960 810.7 960zM262.3 186.2H1024l-92 407.2h-577.9l13.1 58.6h554.1l-18.6 81.4H298.2l-31.6-140h-0.3l-59.5-265.6-41.2-182.4H0V64h234.8l27.5 122.2z m18.4 81.4L335.7 512h527.4l55.2-244.4H280.6z" fill="#0" p-id="3293"></path></svg>