<svg xmlns="http://www.w3.org/2000/svg" viewBox="0 0 1024 1024" version="1.1"><path d="M960 223v238.2a533.1 533.1 0 0 1-33.9 187.7 601.6 601.6 0 0 1-235.5 294.3A549.5 549.5 0 0 1 512 1018.8a549.4 549.4 0 0 1-178.5-75.5 600.9 600.9 0 0 1-235.5-294.4A532.6 532.6 0 0 1 64 461.3V223a64 64 0 0 1 39.5-59.1l384-159a64 64 0 0 1 49 0l384 159a64 64 0 0 1 39.5 59.1zM512 505.6V95.9L163.1 241.3V505.6H512v415.3a414.5 414.5 0 0 0 128.9-59.4 491.8 491.8 0 0 0 103.7-96.1 513.9 513.9 0 0 0 116.3-259.8H512z" fill="#262626" p-id="697"></path></svg>