<svg xmlns="http://www.w3.org/2000/svg" viewBox="0 0 1024 1024" version="1.1"><path d="M145 271.6C223.4 145.6 361.8 62 519.3 62c225.7 0 412 171.8 439.3 393.8h-83.5c-26.6-175.3-175.6-309.5-355.5-309.5-179.9 0-328.9 134.2-355.5 309.5H62V118.3h83v153.3zM580.7 624.5h109v112.5H580.7v56.3H471.8v-56.3H362.9v-112.5h108.9V568.3H362.9V455.8h108.9L308.4 230.8h109l108.8 141.9L635.9 230.8h108.2L580.6 455.8h109.1v112.5H580.7v56.3zM80 568.3h84.2c26.7 175.2 175.6 309.3 355.4 309.3 179.8 0 328.8-134.1 355.5-309.3H962v337.5h-83v-131.3C798.6 888 667.5 962 519.3 962 293.5 962 107.2 790.2 80 568.3z" fill="#0" p-id="939"></path></svg>