<svg xmlns="http://www.w3.org/2000/svg" viewBox="0 0 1024 1024" version="1.1"><path d="M409.6 128c113.2 0 204.8 93.1 204.8 208S522.8 544 409.6 544c-113.2 0-204.8-93.1-204.8-208S296.4 128 409.6 128z m0 98.8c-59.4 0-107.5 48.9-107.5 109.2s48.1 109.2 107.5 109.2c59.4 0 107.5-48.9 107.5-109.2S469 226.8 409.6 226.8z m0 376.6c136.7 0 409.6 68.2 409.6 203.7V960H0v-152.8C0 671.7 272.9 603.5 409.6 603.5z m0 91.3c-152.1 0-312.3 76-312.3 109.2v57.2h624.6v-57.2c0-33.3-160.3-109.2-312.3-109.2zM887.5 960v-168c0-115.5-133.1-197.2-276.3-214.5 24.8-3 74.4 0 94.6 0 136.7 0 318.2 79 318.2 214.5V960h-136.5zM576 501.1A191.9 191.9 0 0 0 702.1 320 191.9 191.9 0 0 0 576 138.9c19.7-7 41-10.9 63-10.9 104.4 0 189 85.9 189 192 0 106-84.5 192-189 192A186.2 186.2 0 0 1 576 501.1z" fill="#0" p-id="2204"></path></svg>