<svg xmlns="http://www.w3.org/2000/svg" viewBox="0 0 1024 1024" version="1.1"><path d="M409.6 128c113.2 0 204.8 93.1 204.8 208S522.8 544 409.6 544c-113.2 0-204.8-93.1-204.8-208S296.4 128 409.6 128z m0 475.5c136.7 0 409.6 68.2 409.6 203.7V960H0v-152.8C0 671.7 272.9 603.5 409.6 603.5zM887.5 960v-168c0-115.5-133.1-197.2-276.3-214.5 24.8-3 74.4 0 94.6 0 136.7 0 318.2 79 318.2 214.5V960h-136.5zM576 532.2a207.8 207.8 0 0 0 136.5-196.2c0-90.6-57-167.7-136.5-196.2 21.4-7.7 44.4-11.8 68.3-11.8 113.2 0 204.8 93.1 204.8 208s-91.6 208-204.8 208c-23.9 0-46.9-4.2-68.3-11.8z" fill="#262626" p-id="1478"></path></svg>